<svg xmlns="http://www.w3.org/2000/svg" width="1600" height="900"><path d="M769,430L905,311L748,294Z" fill="#fff3af" stroke="#fff3af" stroke-width="1.51"/><path d="M769,430L906,495L905,311Z" fill="#fcf9c1" stroke="#fcf9c1" stroke-width="1.51"/><path d="M905,311L861,161L748,294Z" fill="#ffe6a4" stroke="#ffe6a4" stroke-width="1.51"/><path d="M1027,490L987,281L905,311Z" fill="#f5f1c7" stroke="#f5f1c7" stroke-width="1.51"/><path d="M987,281L861,161L905,311Z" fill="#fae3ad" stroke="#fae3ad" stroke-width="1.51"/><path d="M769,430L874,558L906,495Z" fill="#f8fbcf" stroke="#f8fbcf" stroke-width="1.51"/><path d="M748,294L586,398L769,430Z" fill="#fff0a8" stroke="#fff0a8" stroke-width="1.51"/><path d="M769,430L671,647L874,558Z" fill="#f6f9cf" stroke="#f6f9cf" stroke-width="1.51"/><path d="M560,283L586,398L748,294Z" fill="#ffe699" stroke="#ffe699" stroke-width="1.51"/><path d="M906,495L1027,490L905,311Z" fill="#f6f9cf" stroke="#f6f9cf" stroke-width="1.51"/><path d="M874,558L1027,490L906,495Z" fill="#f1f9de" stroke="#f1f9de" stroke-width="1.51"/><path d="M861,161L699,126L748,294Z" fill="#ffda92" stroke="#ffda92" stroke-width="1.51"/><path d="M699,126L560,283L748,294Z" fill="#ffda8d" stroke="#ffda8d" stroke-width="1.51"/><path d="M586,398L671,647L769,430Z" fill="#fcf4bb" stroke="#fcf4bb" stroke-width="1.51"/><path d="M861,161L822,3L699,126Z" fill="#ffc987" stroke="#ffc987" stroke-width="1.51"/><path d="M996,20L822,3L861,161Z" fill="#fdbf90" stroke="#fdbf90" stroke-width="1.51"/><path d="M987,281L1095,115L861,161Z" fill="#f8d5ab" stroke="#f8d5ab" stroke-width="1.51"/><path d="M1214,295L1095,115L987,281Z" fill="#edd8b5" stroke="#edd8b5" stroke-width="1.51"/><path d="M1027,490L1177,453L987,281Z" fill="#edf2d3" stroke="#edf2d3" stroke-width="1.51"/><path d="M874,558L1094,591L1027,490Z" fill="#e8f5ec" stroke="#e8f5ec" stroke-width="1.51"/><path d="M917,716L1094,591L874,558Z" fill="#e0f2ef" stroke="#e0f2ef" stroke-width="1.51"/><path d="M699,126L558,97L560,283Z" fill="#ffca7c" stroke="#ffca7c" stroke-width="1.51"/><path d="M731,-33L558,97L699,126Z" fill="#ffb976" stroke="#ffb976" stroke-width="1.51"/><path d="M1094,591L1177,453L1027,490Z" fill="#e2f2e6" stroke="#e2f2e6" stroke-width="1.51"/><path d="M1095,115L996,20L861,161Z" fill="#f9c49f" stroke="#f9c49f" stroke-width="1.51"/><path d="M671,647L917,716L874,558Z" fill="#e8f4dc" stroke="#e8f4dc" stroke-width="1.51"/><path d="M822,3L731,-33L699,126Z" fill="#ffb87c" stroke="#ffb87c" stroke-width="1.51"/><path d="M895,-159L731,-33L822,3Z" fill="#f9aa78" stroke="#f9aa78" stroke-width="1.51"/><path d="M1177,453L1214,295L987,281Z" fill="#e8e7c7" stroke="#e8e7c7" stroke-width="1.51"/><path d="M671,647L758,789L917,716Z" fill="#dcecd4" stroke="#dcecd4" stroke-width="1.51"/><path d="M586,398L564,659L671,647Z" fill="#f5ecc2" stroke="#f5ecc2" stroke-width="1.51"/><path d="M393,568L564,659L586,398Z" fill="#f9e4b3" stroke="#f9e4b3" stroke-width="1.51"/><path d="M364,472L586,398L560,283Z" fill="#ffe095" stroke="#ffe095" stroke-width="1.51"/><path d="M1094,591L1149,594L1177,453Z" fill="#d9eeeb" stroke="#d9eeeb" stroke-width="1.51"/><path d="M1177,453L1311,483L1214,295Z" fill="#dae8cf" stroke="#dae8cf" stroke-width="1.51"/><path d="M1097,731L1149,594L1094,591Z" fill="#ceeaf3" stroke="#ceeaf3" stroke-width="1.51"/><path d="M531,778L758,789L671,647Z" fill="#dae2c5" stroke="#dae2c5" stroke-width="1.51"/><path d="M1214,295L1221,139L1095,115Z" fill="#e6cbab" stroke="#e6cbab" stroke-width="1.51"/><path d="M1095,115L1246,-4L996,20Z" fill="#edb39b" stroke="#edb39b" stroke-width="1.51"/><path d="M558,97L410,155L560,283Z" fill="#fec374" stroke="#fec374" stroke-width="1.51"/><path d="M381,-41L410,155L558,97Z" fill="#fca661" stroke="#fca661" stroke-width="1.51"/><path d="M993,976L1097,731L917,716Z" fill="#bcdbe8" stroke="#bcdbe8" stroke-width="1.51"/><path d="M917,716L1097,731L1094,591Z" fill="#cfebf3" stroke="#cfebf3" stroke-width="1.51"/><path d="M343,245L364,472L560,283Z" fill="#ffd284" stroke="#ffd284" stroke-width="1.51"/><path d="M564,659L531,778L671,647Z" fill="#e2e1c1" stroke="#e2e1c1" stroke-width="1.51"/><path d="M364,472L393,568L586,398Z" fill="#fedfa0" stroke="#fedfa0" stroke-width="1.51"/><path d="M410,155L343,245L560,283Z" fill="#fec374" stroke="#fec374" stroke-width="1.51"/><path d="M1337,553L1311,483L1149,594Z" fill="#cbe6e6" stroke="#cbe6e6" stroke-width="1.51"/><path d="M1149,594L1311,483L1177,453Z" fill="#d6ebe1" stroke="#d6ebe1" stroke-width="1.51"/><path d="M1214,295L1314,157L1221,139Z" fill="#dfcaab" stroke="#dfcaab" stroke-width="1.51"/><path d="M403,806L531,778L564,659Z" fill="#dbd2b4" stroke="#dbd2b4" stroke-width="1.51"/><path d="M1020,-201L895,-159L996,20Z" fill="#ef9d85" stroke="#ef9d85" stroke-width="1.51"/><path d="M996,20L895,-159L822,3Z" fill="#f7aa85" stroke="#f7aa85" stroke-width="1.51"/><path d="M731,-33L521,-83L558,97Z" fill="#fba769" stroke="#fba769" stroke-width="1.51"/><path d="M599,-137L521,-83L731,-33Z" fill="#f59a62" stroke="#f59a62" stroke-width="1.51"/><path d="M410,155L277,233L343,245Z" fill="#feb668" stroke="#feb668" stroke-width="1.51"/><path d="M1397,332L1314,157L1214,295Z" fill="#d7cfb3" stroke="#d7cfb3" stroke-width="1.51"/><path d="M1221,139L1246,-4L1095,115Z" fill="#e6b79e" stroke="#e6b79e" stroke-width="1.51"/><path d="M723,-183L599,-137L731,-33Z" fill="#f39965" stroke="#f39965" stroke-width="1.51"/><path d="M895,-159L723,-183L731,-33Z" fill="#f49f6d" stroke="#f49f6d" stroke-width="1.51"/><path d="M1311,483L1397,332L1214,295Z" fill="#d4ddc5" stroke="#d4ddc5" stroke-width="1.51"/><path d="M1242,740L1337,553L1149,594Z" fill="#c0e3ee" stroke="#c0e3ee" stroke-width="1.51"/><path d="M1314,157L1246,-4L1221,139Z" fill="#dfb69d" stroke="#dfb69d" stroke-width="1.51"/><path d="M243,103L277,233L410,155Z" fill="#fda95e" stroke="#fda95e" stroke-width="1.51"/><path d="M343,245L261,446L364,472Z" fill="#ffcc83" stroke="#ffcc83" stroke-width="1.51"/><path d="M364,472L229,552L393,568Z" fill="#fbd09e" stroke="#fbd09e" stroke-width="1.51"/><path d="M758,789L829,916L917,716Z" fill="#cae0d3" stroke="#cae0d3" stroke-width="1.51"/><path d="M722,956L829,916L758,789Z" fill="#bfd2c6" stroke="#bfd2c6" stroke-width="1.51"/><path d="M277,233L261,446L343,245Z" fill="#febf75" stroke="#febf75" stroke-width="1.51"/><path d="M393,568L403,806L564,659Z" fill="#e7d4b3" stroke="#e7d4b3" stroke-width="1.51"/><path d="M1097,731L1242,740L1149,594Z" fill="#bfe2ee" stroke="#bfe2ee" stroke-width="1.51"/><path d="M1211,968L1242,740L1097,731Z" fill="#a5d1e4" stroke="#a5d1e4" stroke-width="1.51"/><path d="M1314,157L1370,-43L1246,-4Z" fill="#daa494" stroke="#daa494" stroke-width="1.51"/><path d="M1487,427L1397,332L1311,483Z" fill="#c9d8c7" stroke="#c9d8c7" stroke-width="1.51"/><path d="M895,-159L1020,-201L723,-183Z" fill="#e79878" stroke="#e79878" stroke-width="1.51"/><path d="M1162,-213L1020,-201L996,20Z" fill="#e79789" stroke="#e79789" stroke-width="1.51"/><path d="M521,-83L381,-41L558,97Z" fill="#f99a5d" stroke="#f99a5d" stroke-width="1.51"/><path d="M366,-211L381,-41L521,-83Z" fill="#ef814b" stroke="#ef814b" stroke-width="1.51"/><path d="M531,778L722,956L758,789Z" fill="#c8d2bf" stroke="#c8d2bf" stroke-width="1.51"/><path d="M531,778L536,944L722,956Z" fill="#c1c5b3" stroke="#c1c5b3" stroke-width="1.51"/><path d="M267,770L403,806L393,568Z" fill="#e3c6a6" stroke="#e3c6a6" stroke-width="1.51"/><path d="M261,446L229,552L364,472Z" fill="#fecc93" stroke="#fecc93" stroke-width="1.51"/><path d="M36,481L229,552L261,446Z" fill="#fdbd8b" stroke="#fdbd8b" stroke-width="1.51"/><path d="M277,233L116,255L261,446Z" fill="#fdb570" stroke="#fdb570" stroke-width="1.51"/><path d="M381,-41L243,103L410,155Z" fill="#fb9a57" stroke="#fb9a57" stroke-width="1.51"/><path d="M829,916L993,976L917,716Z" fill="#b8d4d8" stroke="#b8d4d8" stroke-width="1.51"/><path d="M911,1079L993,976L829,916Z" fill="#a7bbcc" stroke="#a7bbcc" stroke-width="1.51"/><path d="M722,956L714,1058L829,916Z" fill="#b3bebc" stroke="#b3bebc" stroke-width="1.51"/><path d="M403,806L536,944L531,778Z" fill="#ccc3ad" stroke="#ccc3ad" stroke-width="1.51"/><path d="M1246,-4L1162,-213L996,20Z" fill="#e59e8e" stroke="#e59e8e" stroke-width="1.51"/><path d="M1020,-201L366,-211L723,-183Z" fill="#e69165" stroke="#e69165" stroke-width="1.51"/><path d="M1321,-191L1162,-213L1246,-4Z" fill="#d48d84" stroke="#d48d84" stroke-width="1.51"/><path d="M1337,553L1487,427L1311,483Z" fill="#c5ddd5" stroke="#c5ddd5" stroke-width="1.51"/><path d="M1496,128L1370,-43L1314,157Z" fill="#d1a595" stroke="#d1a595" stroke-width="1.51"/><path d="M1521,666L1487,427L1337,553Z" fill="#b5d4dd" stroke="#b5d4dd" stroke-width="1.51"/><path d="M1496,128L1314,157L1397,332Z" fill="#cebca5" stroke="#cebca5" stroke-width="1.51"/><path d="M403,806L411,937L536,944Z" fill="#c4b6a3" stroke="#c4b6a3" stroke-width="1.51"/><path d="M229,552L267,770L393,568Z" fill="#f0c6a6" stroke="#f0c6a6" stroke-width="1.51"/><path d="M1242,740L1371,791L1337,553Z" fill="#abd6e8" stroke="#abd6e8" stroke-width="1.51"/><path d="M1334,959L1371,791L1242,740Z" fill="#92c4de" stroke="#92c4de" stroke-width="1.51"/><path d="M1542,237L1496,128L1397,332Z" fill="#c5b9a6" stroke="#c5b9a6" stroke-width="1.51"/><path d="M243,103L116,255L277,233Z" fill="#fca15d" stroke="#fca15d" stroke-width="1.51"/><path d="M229,552L76,638L267,770Z" fill="#edb59d" stroke="#edb59d" stroke-width="1.51"/><path d="M536,944L714,1058L722,956Z" fill="#b3b6b1" stroke="#b3b6b1" stroke-width="1.51"/><path d="M288,965L411,937L403,806Z" fill="#c4ab9a" stroke="#c4ab9a" stroke-width="1.51"/><path d="M536,944L605,1121L714,1058Z" fill="#ada7a8" stroke="#ada7a8" stroke-width="1.51"/><path d="M381,-41L220,-36L243,103Z" fill="#f7834c" stroke="#f7834c" stroke-width="1.51"/><path d="M243,103L39,125L116,255Z" fill="#f98f52" stroke="#f98f52" stroke-width="1.51"/><path d="M366,-211L220,-36L381,-41Z" fill="#ee7644" stroke="#ee7644" stroke-width="1.51"/><path d="M366,-211L521,-83L599,-137Z" fill="#ec8551" stroke="#ec8551" stroke-width="1.51"/><path d="M1162,-213L366,-211L1020,-201Z" fill="#e39574" stroke="#e39574" stroke-width="1.51"/><path d="M723,-183L366,-211L599,-137Z" fill="#e78957" stroke="#e78957" stroke-width="1.51"/><path d="M1095,1071L1211,968L993,976Z" fill="#90b2d6" stroke="#90b2d6" stroke-width="1.51"/><path d="M993,976L1211,968L1097,731Z" fill="#a1c9e1" stroke="#a1c9e1" stroke-width="1.51"/><path d="M1487,427L1542,237L1397,332Z" fill="#c2c8b6" stroke="#c2c8b6" stroke-width="1.51"/><path d="M714,1058L911,1079L829,916Z" fill="#abb8bf" stroke="#abb8bf" stroke-width="1.51"/><path d="M1566,-222L1321,-191L1370,-43Z" fill="#bf7b7c" stroke="#bf7b7c" stroke-width="1.51"/><path d="M1370,-43L1321,-191L1246,-4Z" fill="#d29086" stroke="#d29086" stroke-width="1.51"/><path d="M1487,427L1631,233L1542,237Z" fill="#bbbaac" stroke="#bbbaac" stroke-width="1.51"/><path d="M1371,791L1521,666L1337,553Z" fill="#a5cfe4" stroke="#a5cfe4" stroke-width="1.51"/><path d="M1517,763L1521,666L1371,791Z" fill="#90c2dd" stroke="#90c2dd" stroke-width="1.51"/><path d="M911,1079L1095,1071L993,976Z" fill="#98aed2" stroke="#98aed2" stroke-width="1.51"/><path d="M1211,968L1334,959L1242,740Z" fill="#8ec0dc" stroke="#8ec0dc" stroke-width="1.51"/><path d="M1213,1081L1334,959L1211,968Z" fill="#7eaad1" stroke="#7eaad1" stroke-width="1.51"/><path d="M116,255L36,481L261,446Z" fill="#ffb477" stroke="#ffb477" stroke-width="1.51"/><path d="M36,481L76,638L229,552Z" fill="#f8b293" stroke="#f8b293" stroke-width="1.51"/><path d="M267,770L288,965L403,806Z" fill="#cdaf9b" stroke="#cdaf9b" stroke-width="1.51"/><path d="M714,1058L605,1121L911,1079Z" fill="#a8a5b0" stroke="#a8a5b0" stroke-width="1.51"/><path d="M911,1079L1213,1081L1095,1071Z" fill="#8ea3cf" stroke="#8ea3cf" stroke-width="1.51"/><path d="M440,1071L605,1121L536,944Z" fill="#ae9e9e" stroke="#ae9e9e" stroke-width="1.51"/><path d="M440,1071L536,944L411,937Z" fill="#b7a59d" stroke="#b7a59d" stroke-width="1.51"/><path d="M1486,891L1517,763L1371,791Z" fill="#83b8d7" stroke="#83b8d7" stroke-width="1.51"/><path d="M1631,233L1496,128L1542,237Z" fill="#bfa99c" stroke="#bfa99c" stroke-width="1.51"/><path d="M1496,128L1556,12L1370,-43Z" fill="#c8938c" stroke="#c8938c" stroke-width="1.51"/><path d="M1676,178L1556,12L1496,128Z" fill="#be958e" stroke="#be958e" stroke-width="1.51"/><path d="M1631,233L1487,427L1712,417Z" fill="#b5b9b2" stroke="#b5b9b2" stroke-width="1.51"/><path d="M134,893L288,965L267,770Z" fill="#c99f92" stroke="#c99f92" stroke-width="1.51"/><path d="M192,-209L130,-76L220,-36Z" fill="#e95e3a" stroke="#e95e3a" stroke-width="1.51"/><path d="M220,-36L39,125L243,103Z" fill="#f77e4a" stroke="#f77e4a" stroke-width="1.51"/><path d="M116,255L-111,425L36,481Z" fill="#f8a56d" stroke="#f8a56d" stroke-width="1.51"/><path d="M288,965L440,1071L411,937Z" fill="#b79a94" stroke="#b79a94" stroke-width="1.51"/><path d="M130,-76L39,125L220,-36Z" fill="#f36b41" stroke="#f36b41" stroke-width="1.51"/><path d="M1676,178L1631,233L1860,254Z" fill="#b09696" stroke="#b09696" stroke-width="1.51"/><path d="M605,1121L1213,1081L911,1079Z" fill="#9ea4c1" stroke="#9ea4c1" stroke-width="1.51"/><path d="M1095,1071L1213,1081L1211,968Z" fill="#84a6d0" stroke="#84a6d0" stroke-width="1.51"/><path d="M366,-211L192,-209L220,-36Z" fill="#e5643d" stroke="#e5643d" stroke-width="1.51"/><path d="M1476,1061L1486,891L1334,959Z" fill="#6b9fca" stroke="#6b9fca" stroke-width="1.51"/><path d="M1334,959L1486,891L1371,791Z" fill="#7eb4d5" stroke="#7eb4d5" stroke-width="1.51"/><path d="M1631,233L1676,178L1496,128Z" fill="#bb9f96" stroke="#bb9f96" stroke-width="1.51"/><path d="M1712,417L1487,427L1709,646Z" fill="#abbdc8" stroke="#abbdc8" stroke-width="1.51"/><path d="M1487,427L1521,666L1709,646Z" fill="#a5c2db" stroke="#a5c2db" stroke-width="1.51"/><path d="M288,965L195,1091L440,1071Z" fill="#b28789" stroke="#b28789" stroke-width="1.51"/><path d="M40,783L134,893L267,770Z" fill="#d39d90" stroke="#d39d90" stroke-width="1.51"/><path d="M40,783L267,770L76,638Z" fill="#e1a795" stroke="#e1a795" stroke-width="1.51"/><path d="M-67,801L40,783L76,638Z" fill="#db9a8c" stroke="#db9a8c" stroke-width="1.51"/><path d="M1709,646L1521,666L1517,763Z" fill="#8fb8d9" stroke="#8fb8d9" stroke-width="1.51"/><path d="M36,481L-109,563L76,638Z" fill="#f3a68b" stroke="#f3a68b" stroke-width="1.51"/><path d="M-125,242L-111,425L116,255Z" fill="#f3965d" stroke="#f3965d" stroke-width="1.51"/><path d="M-125,242L116,255L39,125Z" fill="#f48a51" stroke="#f48a51" stroke-width="1.51"/><path d="M-134,114L39,125L-137,-37Z" fill="#e9603a" stroke="#e9603a" stroke-width="1.51"/><path d="M1724,769L1709,646L1517,763Z" fill="#82acd2" stroke="#82acd2" stroke-width="1.51"/><path d="M192,-209L68,-204L130,-76Z" fill="#df4e35" stroke="#df4e35" stroke-width="1.51"/><path d="M1321,-191L1566,-222L1162,-213Z" fill="#bc7c7d" stroke="#bc7c7d" stroke-width="1.51"/><path d="M1162,-213L1659,-246L366,-211Z" fill="#d58d87" stroke="#d58d87" stroke-width="1.51"/><path d="M1556,12L1566,-222L1370,-43Z" fill="#bf7c7d" stroke="#bf7c7d" stroke-width="1.51"/><path d="M1720,-3L1566,-222L1556,12Z" fill="#b46f78" stroke="#b46f78" stroke-width="1.51"/><path d="M1640,983L1724,769L1517,763Z" fill="#6ea0cb" stroke="#6ea0cb" stroke-width="1.51"/><path d="M1213,1081L1404,1103L1334,959Z" fill="#719ac9" stroke="#719ac9" stroke-width="1.51"/><path d="M605,1121L1404,1103L1213,1081Z" fill="#8c9dcd" stroke="#8c9dcd" stroke-width="1.51"/><path d="M-134,114L-125,242L39,125Z" fill="#ed7844" stroke="#ed7844" stroke-width="1.51"/><path d="M-111,425L-109,563L36,481Z" fill="#f4a279" stroke="#f4a279" stroke-width="1.51"/><path d="M-260,558L-109,563L-111,425Z" fill="#e9987b" stroke="#e9987b" stroke-width="1.51"/><path d="M1404,1103L1476,1061L1334,959Z" fill="#6693c5" stroke="#6693c5" stroke-width="1.51"/><path d="M1676,178L1720,-3L1556,12Z" fill="#b78285" stroke="#b78285" stroke-width="1.51"/><path d="M1865,144L1720,-3L1676,178Z" fill="#af7c84" stroke="#af7c84" stroke-width="1.51"/><path d="M1860,254L1631,233L1712,417Z" fill="#ada1a2" stroke="#ada1a2" stroke-width="1.51"/><path d="M64,1115L195,1091L134,893Z" fill="#b2727c" stroke="#b2727c" stroke-width="1.51"/><path d="M134,893L195,1091L288,965Z" fill="#b98687" stroke="#b98687" stroke-width="1.51"/><path d="M440,1071L195,1091L605,1121Z" fill="#ac868e" stroke="#ac868e" stroke-width="1.51"/><path d="M-80,897L134,893L40,783Z" fill="#c88a85" stroke="#c88a85" stroke-width="1.51"/><path d="M1787,601L1789,454L1712,417Z" fill="#a3abbf" stroke="#a3abbf" stroke-width="1.51"/><path d="M-285,428L-260,558L-111,425Z" fill="#e49672" stroke="#e49672" stroke-width="1.51"/><path d="M-137,-37L39,125L130,-76Z" fill="#eb5c3a" stroke="#eb5c3a" stroke-width="1.51"/><path d="M1709,646L1787,601L1712,417Z" fill="#9cadcc" stroke="#9cadcc" stroke-width="1.51"/><path d="M1640,983L1517,763L1486,891Z" fill="#6da4cc" stroke="#6da4cc" stroke-width="1.51"/><path d="M-109,563L-67,801L76,638Z" fill="#e39b8c" stroke="#e39b8c" stroke-width="1.51"/><path d="M1724,769L1787,601L1709,646Z" fill="#86a5cf" stroke="#86a5cf" stroke-width="1.51"/><path d="M1566,-222L1659,-246L1162,-213Z" fill="#ac6f78" stroke="#ac6f78" stroke-width="1.51"/><path d="M-266,-229L-96,-211L192,-209Z" fill="#c92c2a" stroke="#c92c2a" stroke-width="1.51"/><path d="M1720,-3L1659,-246L1566,-222Z" fill="#a75f6f" stroke="#a75f6f" stroke-width="1.51"/><path d="M1476,1061L1640,983L1486,891Z" fill="#5f92c4" stroke="#5f92c4" stroke-width="1.51"/><path d="M1711,1087L1640,983L1476,1061Z" fill="#4e7bb8" stroke="#4e7bb8" stroke-width="1.51"/><path d="M68,-204L-137,-37L130,-76Z" fill="#e14730" stroke="#e14730" stroke-width="1.51"/><path d="M-137,-37L-190,108L-134,114Z" fill="#e15939" stroke="#e15939" stroke-width="1.51"/><path d="M-134,114L-190,108L-125,242Z" fill="#e67042" stroke="#e67042" stroke-width="1.51"/><path d="M-270,758L-80,897L-67,801Z" fill="#c37f7e" stroke="#c37f7e" stroke-width="1.51"/><path d="M1720,-3L1843,-226L1659,-246Z" fill="#9f516a" stroke="#9f516a" stroke-width="1.51"/><path d="M1789,454L1860,254L1712,417Z" fill="#a9a1aa" stroke="#a9a1aa" stroke-width="1.51"/><path d="M1897,802L1860,254L1789,454Z" fill="#9e9dbb" stroke="#9e9dbb" stroke-width="1.51"/><path d="M-67,801L-80,897L40,783Z" fill="#ca8882" stroke="#ca8882" stroke-width="1.51"/><path d="M-270,758L-67,801L-109,563Z" fill="#d48d84" stroke="#d48d84" stroke-width="1.51"/><path d="M1860,254L1865,144L1676,178Z" fill="#ad868d" stroke="#ad868d" stroke-width="1.51"/><path d="M-80,897L64,1115L134,893Z" fill="#b7767c" stroke="#b7767c" stroke-width="1.51"/><path d="M195,1091L64,1115L605,1121Z" fill="#ac7481" stroke="#ac7481" stroke-width="1.51"/><path d="M68,-204L-96,-211L-137,-37Z" fill="#d53429" stroke="#d53429" stroke-width="1.51"/><path d="M-269,-37L-295,233L-190,108Z" fill="#d85c3d" stroke="#d85c3d" stroke-width="1.51"/><path d="M192,-209L-96,-211L68,-204Z" fill="#d23e30" stroke="#d23e30" stroke-width="1.51"/><path d="M-266,-229L192,-209L366,-211Z" fill="#d34333" stroke="#d34333" stroke-width="1.51"/><path d="M-285,428L-111,425L-125,242Z" fill="#e99161" stroke="#e99161" stroke-width="1.51"/><path d="M-295,233L-125,242L-190,108Z" fill="#e17447" stroke="#e17447" stroke-width="1.51"/><path d="M-295,233L-285,428L-125,242Z" fill="#e08557" stroke="#e08557" stroke-width="1.51"/><path d="M-269,-37L-190,108L-137,-37Z" fill="#da4934" stroke="#da4934" stroke-width="1.51"/><path d="M1860,254L1884,-20L1865,144Z" fill="#a96e7f" stroke="#a96e7f" stroke-width="1.51"/><path d="M1865,144L1884,-20L1720,-3Z" fill="#ab6378" stroke="#ab6378" stroke-width="1.51"/><path d="M1404,1103L1711,1087L1476,1061Z" fill="#557cb9" stroke="#557cb9" stroke-width="1.51"/><path d="M1640,983L1849,884L1724,769Z" fill="#5d8bc0" stroke="#5d8bc0" stroke-width="1.51"/><path d="M1724,769L1897,802L1787,601Z" fill="#7a97c8" stroke="#7a97c8" stroke-width="1.51"/><path d="M1787,601L1897,802L1789,454Z" fill="#8e9ccc" stroke="#8e9ccc" stroke-width="1.51"/><path d="M1784,1089L1849,884L1640,983Z" fill="#4a74b4" stroke="#4a74b4" stroke-width="1.51"/><path d="M1860,254L1897,802L1884,-20Z" fill="#a68fa0" stroke="#a68fa0" stroke-width="1.51"/><path d="M-266,-229L-269,-37L-137,-37Z" fill="#cb2d2a" stroke="#cb2d2a" stroke-width="1.51"/><path d="M-285,428L-270,758L-260,558Z" fill="#d78e85" stroke="#d78e85" stroke-width="1.51"/><path d="M-260,558L-270,758L-109,563Z" fill="#d88f88" stroke="#d88f88" stroke-width="1.51"/><path d="M-80,897L-91,1125L64,1115Z" fill="#a95d70" stroke="#a95d70" stroke-width="1.51"/><path d="M-295,233L-270,758L-285,428Z" fill="#dd9171" stroke="#dd9171" stroke-width="1.51"/><path d="M1849,884L1897,802L1724,769Z" fill="#6787bf" stroke="#6787bf" stroke-width="1.51"/><path d="M1884,-20L1843,-226L1720,-3Z" fill="#a44f6b" stroke="#a44f6b" stroke-width="1.51"/><path d="M-270,758L-183,980L-80,897Z" fill="#b57479" stroke="#b57479" stroke-width="1.51"/><path d="M-183,980L-91,1125L-80,897Z" fill="#a95f6f" stroke="#a95f6f" stroke-width="1.51"/><path d="M64,1115L-91,1125L605,1121Z" fill="#aa6479" stroke="#aa6479" stroke-width="1.51"/><path d="M1849,884L1784,1089L1897,802Z" fill="#5373b4" stroke="#5373b4" stroke-width="1.51"/><path d="M1711,1087L1784,1089L1640,983Z" fill="#446db0" stroke="#446db0" stroke-width="1.51"/><path d="M1404,1103L1784,1089L1711,1087Z" fill="#496eb1" stroke="#496eb1" stroke-width="1.51"/><path d="M-96,-211L-266,-229L-137,-37Z" fill="#c92627" stroke="#c92627" stroke-width="1.51"/><path d="M-269,-37L-266,-229L-295,233Z" fill="#ce3e31" stroke="#ce3e31" stroke-width="1.51"/><path d="M1659,-246L-266,-229L366,-211Z" fill="#de8559" stroke="#de8559" stroke-width="1.51"/><path d="M-183,980L-220,1113L-91,1125Z" fill="#9b4b68" stroke="#9b4b68" stroke-width="1.51"/><path d="M-270,758L-220,1113L-183,980Z" fill="#a46372" stroke="#a46372" stroke-width="1.51"/></svg>