<svg xmlns="http://www.w3.org/2000/svg" width="1600" height="1200"><path d="M727,687L538,598L738,728Z" fill="#638ce2" stroke="#638ce2" stroke-width="1.51"/><path d="M538,598L655,892L738,728Z" fill="#618be0" stroke="#618be0" stroke-width="1.51"/><path d="M538,598L427,688L655,892Z" fill="#6995e4" stroke="#6995e4" stroke-width="1.51"/><path d="M427,688L396,845L655,892Z" fill="#6895e2" stroke="#6895e2" stroke-width="1.51"/><path d="M445,1013L619,1024L655,892Z" fill="#5883da" stroke="#5883da" stroke-width="1.51"/><path d="M655,892L943,1042L738,728Z" fill="#4e74d7" stroke="#4e74d7" stroke-width="1.51"/><path d="M396,845L445,1013L655,892Z" fill="#618ede" stroke="#618ede" stroke-width="1.51"/><path d="M727,687L601,389L538,598Z" fill="#6d9be7" stroke="#6d9be7" stroke-width="1.51"/><path d="M538,598L414,346L427,688Z" fill="#79adec" stroke="#79adec" stroke-width="1.51"/><path d="M396,845L214,803L445,1013Z" fill="#6c9fe4" stroke="#6c9fe4" stroke-width="1.51"/><path d="M427,688L214,803L396,845Z" fill="#72a6e7" stroke="#72a6e7" stroke-width="1.51"/><path d="M141,633L214,803L427,688Z" fill="#7bb3ec" stroke="#7bb3ec" stroke-width="1.51"/><path d="M619,1024L743,1105L655,892Z" fill="#4e77d6" stroke="#4e77d6" stroke-width="1.51"/><path d="M617,1253L743,1105L619,1024Z" fill="#4a6fc7" stroke="#4a6fc7" stroke-width="1.51"/><path d="M727,687L873,451L601,389Z" fill="#6a95e5" stroke="#6a95e5" stroke-width="1.51"/><path d="M1019,570L873,451L727,687Z" fill="#5d84df" stroke="#5d84df" stroke-width="1.51"/><path d="M1019,570L727,687L738,728Z" fill="#597edd" stroke="#597edd" stroke-width="1.51"/><path d="M601,389L414,346L538,598Z" fill="#7cb3ee" stroke="#7cb3ee" stroke-width="1.51"/><path d="M680,110L414,346L601,389Z" fill="#84c3f2" stroke="#84c3f2" stroke-width="1.51"/><path d="M206,479L141,633L427,688Z" fill="#80bbef" stroke="#80bbef" stroke-width="1.51"/><path d="M414,346L206,479L427,688Z" fill="#81bdf0" stroke="#81bdf0" stroke-width="1.51"/><path d="M743,1105L943,1042L655,892Z" fill="#456cd3" stroke="#456cd3" stroke-width="1.51"/><path d="M1072,848L1019,570L738,728Z" fill="#5076d8" stroke="#5076d8" stroke-width="1.51"/><path d="M943,1042L1072,848L738,728Z" fill="#466dd4" stroke="#466dd4" stroke-width="1.51"/><path d="M445,1013L617,1253L619,1024Z" fill="#527cd1" stroke="#527cd1" stroke-width="1.51"/><path d="M743,1105L879,1187L943,1042Z" fill="#3b61c5" stroke="#3b61c5" stroke-width="1.51"/><path d="M309,1292L617,1253L445,1013Z" fill="#577ebf" stroke="#577ebf" stroke-width="1.51"/><path d="M873,451L775,271L601,389Z" fill="#74a5ea" stroke="#74a5ea" stroke-width="1.51"/><path d="M1058,223L775,271L873,451Z" fill="#71a2e7" stroke="#71a2e7" stroke-width="1.51"/><path d="M1228,1083L1270,836L1072,848Z" fill="#305dcb" stroke="#305dcb" stroke-width="1.51"/><path d="M748,1376L879,1187L743,1105Z" fill="#3e5bae" stroke="#3e5bae" stroke-width="1.51"/><path d="M214,803L93,1036L445,1013Z" fill="#6fa5e4" stroke="#6fa5e4" stroke-width="1.51"/><path d="M-23,719L93,1036L214,803Z" fill="#8dadd3" stroke="#8dadd3" stroke-width="1.51"/><path d="M141,633L-23,719L214,803Z" fill="#91b6da" stroke="#91b6da" stroke-width="1.51"/><path d="M-46,644L-23,719L141,633Z" fill="#9fb9ce" stroke="#9fb9ce" stroke-width="1.51"/><path d="M93,1036L309,1292L445,1013Z" fill="#6496d4" stroke="#6496d4" stroke-width="1.51"/><path d="M-61,392L-46,644L141,633Z" fill="#a7c3cf" stroke="#a7c3cf" stroke-width="1.51"/><path d="M775,271L680,110L601,389Z" fill="#80baef" stroke="#80baef" stroke-width="1.51"/><path d="M414,346L296,153L206,479Z" fill="#8fd8f7" stroke="#8fd8f7" stroke-width="1.51"/><path d="M206,479L-61,392L141,633Z" fill="#9ecade" stroke="#9ecade" stroke-width="1.51"/><path d="M879,60L680,110L775,271Z" fill="#81bef0" stroke="#81bef0" stroke-width="1.51"/><path d="M1019,570L1089,346L873,451Z" fill="#618ce0" stroke="#618ce0" stroke-width="1.51"/><path d="M1198,472L1089,346L1019,570Z" fill="#5c85dd" stroke="#5c85dd" stroke-width="1.51"/><path d="M624,1489L748,1376L617,1253Z" fill="#425a90" stroke="#425a90" stroke-width="1.51"/><path d="M617,1253L748,1376L743,1105Z" fill="#4461ab" stroke="#4461ab" stroke-width="1.51"/><path d="M748,1376L960,1289L879,1187Z" fill="#39539e" stroke="#39539e" stroke-width="1.51"/><path d="M879,1187L960,1289L943,1042Z" fill="#3758b5" stroke="#3758b5" stroke-width="1.51"/><path d="M680,110L296,153L414,346Z" fill="#8ed7f7" stroke="#8ed7f7" stroke-width="1.51"/><path d="M1255,551L1198,472L1019,570Z" fill="#537ad9" stroke="#537ad9" stroke-width="1.51"/><path d="M1255,551L1019,570L1072,848Z" fill="#4a71d6" stroke="#4a71d6" stroke-width="1.51"/><path d="M93,1036L115,1271L309,1292Z" fill="#6e93ba" stroke="#6e93ba" stroke-width="1.51"/><path d="M-23,719L-16,1073L93,1036Z" fill="#94a7c4" stroke="#94a7c4" stroke-width="1.51"/><path d="M-320,974L-16,1073L-23,719Z" fill="#a5a8b0" stroke="#a5a8b0" stroke-width="1.51"/><path d="M309,1292L440,1419L617,1253Z" fill="#5172a1" stroke="#5172a1" stroke-width="1.51"/><path d="M178,1480L440,1419L309,1292Z" fill="#547994" stroke="#547994" stroke-width="1.51"/><path d="M1228,1083L1072,848L943,1042Z" fill="#315ecc" stroke="#315ecc" stroke-width="1.51"/><path d="M-16,1073L50,1196L93,1036Z" fill="#889cbd" stroke="#889cbd" stroke-width="1.51"/><path d="M1270,836L1255,551L1072,848Z" fill="#3f67d0" stroke="#3f67d0" stroke-width="1.51"/><path d="M50,1196L115,1271L93,1036Z" fill="#7d96b4" stroke="#7d96b4" stroke-width="1.51"/><path d="M1089,346L1058,223L873,451Z" fill="#6a99e4" stroke="#6a99e4" stroke-width="1.51"/><path d="M1192,131L1058,223L1089,346Z" fill="#6da1e5" stroke="#6da1e5" stroke-width="1.51"/><path d="M1052,50L1058,223L1192,131Z" fill="#75ade8" stroke="#75ade8" stroke-width="1.51"/><path d="M960,1289L1228,1083L943,1042Z" fill="#2f56ba" stroke="#2f56ba" stroke-width="1.51"/><path d="M960,1289L1260,1173L1228,1083Z" fill="#284dad" stroke="#284dad" stroke-width="1.51"/><path d="M748,1376L932,1387L960,1289Z" fill="#364c8f" stroke="#364c8f" stroke-width="1.51"/><path d="M624,1489L932,1387L748,1376Z" fill="#3a4d83" stroke="#3a4d83" stroke-width="1.51"/><path d="M117,117L-61,392L206,479Z" fill="#a9e1e2" stroke="#a9e1e2" stroke-width="1.51"/><path d="M440,1419L624,1489L617,1253Z" fill="#47638f" stroke="#47638f" stroke-width="1.51"/><path d="M1058,223L879,60L775,271Z" fill="#79b1ec" stroke="#79b1ec" stroke-width="1.51"/><path d="M680,110L413,-19L296,153Z" fill="#9de1ef" stroke="#9de1ef" stroke-width="1.51"/><path d="M879,60L662,-9L680,110Z" fill="#95c4e2" stroke="#95c4e2" stroke-width="1.51"/><path d="M296,153L117,117L206,479Z" fill="#9aeaf8" stroke="#9aeaf8" stroke-width="1.51"/><path d="M122,-55L117,117L296,153Z" fill="#b1faeb" stroke="#b1faeb" stroke-width="1.51"/><path d="M662,-9L413,-19L680,110Z" fill="#a2d4e1" stroke="#a2d4e1" stroke-width="1.51"/><path d="M1228,1083L1387,887L1270,836Z" fill="#2657c7" stroke="#2657c7" stroke-width="1.51"/><path d="M1156,1514L1260,1173L960,1289Z" fill="#2a438e" stroke="#2a438e" stroke-width="1.51"/><path d="M1497,976L1387,887L1228,1083Z" fill="#1751c4" stroke="#1751c4" stroke-width="1.51"/><path d="M1270,836L1447,575L1255,551Z" fill="#3d67d0" stroke="#3d67d0" stroke-width="1.51"/><path d="M0,1436L178,1480L115,1271Z" fill="#698282" stroke="#698282" stroke-width="1.51"/><path d="M115,1271L178,1480L309,1292Z" fill="#5f859c" stroke="#5f859c" stroke-width="1.51"/><path d="M440,1419L178,1480L624,1489Z" fill="#4a6a82" stroke="#4a6a82" stroke-width="1.51"/><path d="M0,1436L115,1271L50,1196Z" fill="#768a91" stroke="#768a91" stroke-width="1.51"/><path d="M756,-228L599,-177L662,-9Z" fill="#b6cbbf" stroke="#b6cbbf" stroke-width="1.51"/><path d="M1058,223L1052,50L879,60Z" fill="#7fb3e6" stroke="#7fb3e6" stroke-width="1.51"/><path d="M1192,131L1089,346L1393,273Z" fill="#6798e1" stroke="#6798e1" stroke-width="1.51"/><path d="M1434,389L1198,472L1255,551Z" fill="#517ad7" stroke="#517ad7" stroke-width="1.51"/><path d="M1393,273L1089,346L1198,472Z" fill="#5e8bdd" stroke="#5e8bdd" stroke-width="1.51"/><path d="M-234,423L-278,613L-46,644Z" fill="#bbc3b0" stroke="#bbc3b0" stroke-width="1.51"/><path d="M-46,644L-278,613L-23,719Z" fill="#b0bab8" stroke="#b0bab8" stroke-width="1.51"/><path d="M-152,1417L0,1436L50,1196Z" fill="#7b8679" stroke="#7b8679" stroke-width="1.51"/><path d="M-234,423L-46,644L-61,392Z" fill="#b9ccbd" stroke="#b9ccbd" stroke-width="1.51"/><path d="M-219,238L-234,423L-61,392Z" fill="#c5deb7" stroke="#c5deb7" stroke-width="1.51"/><path d="M1387,887L1447,575L1270,836Z" fill="#315ecb" stroke="#315ecb" stroke-width="1.51"/><path d="M-282,1151L50,1196L-16,1073Z" fill="#9498a1" stroke="#9498a1" stroke-width="1.51"/><path d="M117,117L-54,105L-61,392Z" fill="#bbf1d7" stroke="#bbf1d7" stroke-width="1.51"/><path d="M122,-55L-54,105L117,117Z" fill="#c2fad4" stroke="#c2fad4" stroke-width="1.51"/><path d="M-278,613L-322,809L-23,719Z" fill="#b6b6a8" stroke="#b6b6a8" stroke-width="1.51"/><path d="M1447,575L1434,389L1255,551Z" fill="#4a72d3" stroke="#4a72d3" stroke-width="1.51"/><path d="M413,-19L122,-55L296,153Z" fill="#b0f5e9" stroke="#b0f5e9" stroke-width="1.51"/><path d="M662,-9L599,-177L413,-19Z" fill="#b3d7cf" stroke="#b3d7cf" stroke-width="1.51"/><path d="M756,-228L662,-9L879,60Z" fill="#a8c1cc" stroke="#a8c1cc" stroke-width="1.51"/><path d="M220,-228L122,-55L413,-19Z" fill="#c4f8cf" stroke="#c4f8cf" stroke-width="1.51"/><path d="M-322,809L-320,974L-23,719Z" fill="#b3aea2" stroke="#b3aea2" stroke-width="1.51"/><path d="M1434,389L1393,273L1198,472Z" fill="#5883d9" stroke="#5883d9" stroke-width="1.51"/><path d="M1387,887L1666,741L1447,575Z" fill="#3456b4" stroke="#3456b4" stroke-width="1.51"/><path d="M1447,575L1656,553L1434,389Z" fill="#4769ba" stroke="#4769ba" stroke-width="1.51"/><path d="M1260,1173L1497,976L1228,1083Z" fill="#0c4dc0" stroke="#0c4dc0" stroke-width="1.51"/><path d="M-278,613L-270,-253L-322,809Z" fill="#cdd9a3" stroke="#cdd9a3" stroke-width="1.51"/><path d="M-234,423L-219,238L-278,613Z" fill="#c8d5a9" stroke="#c8d5a9" stroke-width="1.51"/><path d="M-54,105L-219,238L-61,392Z" fill="#c5ecc4" stroke="#c5ecc4" stroke-width="1.51"/><path d="M-232,15L-219,238L-54,105Z" fill="#d2fbba" stroke="#d2fbba" stroke-width="1.51"/><path d="M-320,974L-282,1151L-16,1073Z" fill="#a79f9e" stroke="#a79f9e" stroke-width="1.51"/><path d="M932,1387L1156,1514L960,1289Z" fill="#2f4282" stroke="#2f4282" stroke-width="1.51"/><path d="M1260,1173L1401,1255L1497,976Z" fill="#0e45af" stroke="#0e45af" stroke-width="1.51"/><path d="M624,1489L1156,1514L932,1387Z" fill="#324276" stroke="#324276" stroke-width="1.51"/><path d="M178,1480L1156,1514L624,1489Z" fill="#3d5176" stroke="#3d5176" stroke-width="1.51"/><path d="M1156,1514L1401,1255L1260,1173Z" fill="#213d8c" stroke="#213d8c" stroke-width="1.51"/><path d="M599,-177L388,-217L413,-19Z" fill="#c0e1c3" stroke="#c0e1c3" stroke-width="1.51"/><path d="M599,-177L756,-228L388,-217Z" fill="#c3d5b3" stroke="#c3d5b3" stroke-width="1.51"/><path d="M922,-317L756,-228L879,60Z" fill="#b2bbb6" stroke="#b2bbb6" stroke-width="1.51"/><path d="M922,-317L879,60L1052,50Z" fill="#a2b5c6" stroke="#a2b5c6" stroke-width="1.51"/><path d="M1256,12L1052,50L1192,131Z" fill="#83aada" stroke="#83aada" stroke-width="1.51"/><path d="M-282,1151L-152,1417L50,1196Z" fill="#8d8e80" stroke="#8d8e80" stroke-width="1.51"/><path d="M0,1436L-152,1417L178,1480Z" fill="#6e7d6b" stroke="#6e7d6b" stroke-width="1.51"/><path d="M1393,273L1256,12L1192,131Z" fill="#6da3e3" stroke="#6da3e3" stroke-width="1.51"/><path d="M122,-55L-104,-64L-54,105Z" fill="#d1fbbb" stroke="#d1fbbb" stroke-width="1.51"/><path d="M388,-217L220,-228L413,-19Z" fill="#c7efc2" stroke="#c7efc2" stroke-width="1.51"/><path d="M922,-317L220,-228L388,-217Z" fill="#cbddab" stroke="#cbddab" stroke-width="1.51"/><path d="M-74,-222L-104,-64L122,-55Z" fill="#ddfba3" stroke="#ddfba3" stroke-width="1.51"/><path d="M1393,273L1361,-72L1256,12Z" fill="#7aa1d6" stroke="#7aa1d6" stroke-width="1.51"/><path d="M1434,389L1600,132L1393,273Z" fill="#5c87c9" stroke="#5c87c9" stroke-width="1.51"/><path d="M1497,976L1666,741L1387,887Z" fill="#294eac" stroke="#294eac" stroke-width="1.51"/><path d="M1708,983L1666,741L1497,976Z" fill="#274598" stroke="#274598" stroke-width="1.51"/><path d="M1666,741L1656,553L1447,575Z" fill="#3b57a7" stroke="#3b57a7" stroke-width="1.51"/><path d="M-104,-64L-232,15L-54,105Z" fill="#d9fbab" stroke="#d9fbab" stroke-width="1.51"/><path d="M-219,238L-232,15L-278,613Z" fill="#cfe7ad" stroke="#cfe7ad" stroke-width="1.51"/><path d="M1156,1514L1498,1376L1401,1255Z" fill="#1d357c" stroke="#1d357c" stroke-width="1.51"/><path d="M1638,1229L1708,983L1497,976Z" fill="#183d95" stroke="#183d95" stroke-width="1.51"/><path d="M1129,-287L922,-317L1052,50Z" fill="#aeb1ad" stroke="#aeb1ad" stroke-width="1.51"/><path d="M756,-228L922,-317L388,-217Z" fill="#c3caa7" stroke="#c3caa7" stroke-width="1.51"/><path d="M1256,12L1129,-287L1052,50Z" fill="#9cabbf" stroke="#9cabbf" stroke-width="1.51"/><path d="M1600,132L1361,-72L1393,273Z" fill="#6c99ce" stroke="#6c99ce" stroke-width="1.51"/><path d="M1638,1229L1497,976L1401,1255Z" fill="#183c94" stroke="#183c94" stroke-width="1.51"/><path d="M1666,741L1759,629L1656,553Z" fill="#384f94" stroke="#384f94" stroke-width="1.51"/><path d="M1498,1376L1638,1229L1401,1255Z" fill="#1b3278" stroke="#1b3278" stroke-width="1.51"/><path d="M1352,-147L1129,-287L1256,12Z" fill="#a1a6b0" stroke="#a1a6b0" stroke-width="1.51"/><path d="M-104,-64L-270,-253L-232,15Z" fill="#e9fc85" stroke="#e9fc85" stroke-width="1.51"/><path d="M220,-228L-74,-222L122,-55Z" fill="#dafcaa" stroke="#dafcaa" stroke-width="1.51"/><path d="M-270,-253L-74,-222L220,-228Z" fill="#eafc84" stroke="#eafc84" stroke-width="1.51"/><path d="M1708,983L1754,789L1666,741Z" fill="#2c438b" stroke="#2c438b" stroke-width="1.51"/><path d="M1569,-202L1352,-147L1361,-72Z" fill="#999ba4" stroke="#999ba4" stroke-width="1.51"/><path d="M1361,-72L1352,-147L1256,12Z" fill="#95a1bd" stroke="#95a1bd" stroke-width="1.51"/><path d="M1712,368L1600,132L1434,389Z" fill="#567cb4" stroke="#567cb4" stroke-width="1.51"/><path d="M1754,789L1759,629L1666,741Z" fill="#33488b" stroke="#33488b" stroke-width="1.51"/><path d="M1712,368L1434,389L1656,553Z" fill="#4b6aab" stroke="#4b6aab" stroke-width="1.51"/><path d="M1848,397L1712,368L1656,553Z" fill="#466093" stroke="#466093" stroke-width="1.51"/><path d="M1861,1434L1618,1368L1498,1376Z" fill="#1a214a" stroke="#1a214a" stroke-width="1.51"/><path d="M1498,1376L1618,1368L1638,1229Z" fill="#1b2b64" stroke="#1b2b64" stroke-width="1.51"/><path d="M1885,1213L1920,1079L1708,983Z" fill="#1c2c69" stroke="#1c2c69" stroke-width="1.51"/><path d="M1708,983L1920,1079L1754,789Z" fill="#233779" stroke="#233779" stroke-width="1.51"/><path d="M1823,163L1600,132L1712,368Z" fill="#557c9e" stroke="#557c9e" stroke-width="1.51"/><path d="M1823,163L1700,59L1600,132Z" fill="#5e869f" stroke="#5e869f" stroke-width="1.51"/><path d="M1600,132L1569,-202L1361,-72Z" fill="#8695a5" stroke="#8695a5" stroke-width="1.51"/><path d="M1352,-147L1569,-202L1129,-287Z" fill="#a6a0a1" stroke="#a6a0a1" stroke-width="1.51"/><path d="M1759,629L1848,397L1656,553Z" fill="#3f568d" stroke="#3f568d" stroke-width="1.51"/><path d="M1920,1079L1848,397L1759,629Z" fill="#314278" stroke="#314278" stroke-width="1.51"/><path d="M1920,1079L1759,629L1754,789Z" fill="#2b3d7a" stroke="#2b3d7a" stroke-width="1.51"/><path d="M-74,-222L-270,-253L-104,-64Z" fill="#ecfd7d" stroke="#ecfd7d" stroke-width="1.51"/><path d="M-232,15L-270,-253L-278,613Z" fill="#d9fbab" stroke="#d9fbab" stroke-width="1.51"/><path d="M922,-317L-270,-253L220,-228Z" fill="#d5f5ac" stroke="#d5f5ac" stroke-width="1.51"/><path d="M1700,59L1569,-202L1600,132Z" fill="#788c99" stroke="#788c99" stroke-width="1.51"/><path d="M1700,59L1796,-1L1569,-202Z" fill="#798784" stroke="#798784" stroke-width="1.51"/><path d="M1848,397L1823,163L1712,368Z" fill="#4c6b8d" stroke="#4c6b8d" stroke-width="1.51"/><path d="M1885,1213L1708,983L1638,1229Z" fill="#1b2e6f" stroke="#1b2e6f" stroke-width="1.51"/><path d="M1861,1434L1885,1213L1638,1229Z" fill="#192048" stroke="#192048" stroke-width="1.51"/><path d="M1823,163L1796,-1L1700,59Z" fill="#62818b" stroke="#62818b" stroke-width="1.51"/><path d="M1618,1368L1861,1434L1638,1229Z" fill="#1a224c" stroke="#1a224c" stroke-width="1.51"/><path d="M1885,1213L1861,1434L1920,1079Z" fill="#181f43" stroke="#181f43" stroke-width="1.51"/><path d="M1156,1514L1861,1434L1498,1376Z" fill="#1b275a" stroke="#1b275a" stroke-width="1.51"/><path d="M1569,-202L1854,-177L1129,-287Z" fill="#9a9483" stroke="#9a9483" stroke-width="1.51"/><path d="M1796,-1L1854,-177L1569,-202Z" fill="#7e846d" stroke="#7e846d" stroke-width="1.51"/><path d="M1823,163L1854,-177L1796,-1Z" fill="#697e74" stroke="#697e74" stroke-width="1.51"/><path d="M1848,397L1854,-177L1823,163Z" fill="#547c88" stroke="#547c88" stroke-width="1.51"/><path d="M1920,1079L1854,-177L1848,397Z" fill="#41587b" stroke="#41587b" stroke-width="1.51"/></svg>